<?xml version="1.0" standalone="no"?>
<!DOCTYPE svg PUBLIC "-//W3C//DTD SVG 20010904//EN"
 "http://www.w3.org/TR/2001/REC-SVG-20010904/DTD/svg10.dtd">
<svg version="1.0" xmlns="http://www.w3.org/2000/svg"
 width="500.000000pt" height="500.000000pt" viewBox="0 0 500.000000 500.000000"
 preserveAspectRatio="xMidYMid meet">

<g transform="translate(0.000000,500.000000) scale(0.100000,-0.100000)"
fill="#000000" stroke="none">
<path d="M2332 4850 c-258 -117 -560 -274 -672 -350 -14 -10 -83 -56 -155
-103 -445 -293 -871 -691 -1188 -1111 -46 -61 -46 -55 -7 -391 88 -766 252
-1360 529 -1915 83 -166 198 -366 268 -464 34 -48 36 -49 193 -85 388 -90 560
-123 820 -156 517 -67 1164 -4 1665 164 l139 46 59 100 c196 333 363 686 485
1030 178 498 273 960 308 1503 l7 101 -53 73 c-177 243 -498 589 -700 755
-269 220 -517 392 -770 533 -267 149 -691 351 -733 349 -12 0 -100 -36 -195
-79z m389 -53 c844 -383 1447 -848 1942 -1500 l67 -88 -5 -82 c-43 -621 -135
-1056 -336 -1589 -107 -285 -287 -659 -445 -924 l-54 -91 -128 -41 c-220 -72
-429 -120 -642 -146 -598 -74 -1038 -41 -1776 135 l-172 41 -30 41 c-57 81
-182 296 -256 445 -291 581 -464 1233 -542 2040 l-16 173 27 40 c54 77 260
315 380 438 465 478 973 828 1615 1114 145 64 170 75 181 76 3 1 89 -37 190
-82z"/>
<path d="M2404 4776 c-641 -280 -1134 -612 -1587 -1069 -135 -136 -363 -399
-410 -474 l-25 -38 14 -155 c53 -607 180 -1170 374 -1659 96 -242 246 -530
385 -739 56 -84 39 -78 385 -154 456 -100 704 -132 1030 -131 234 1 437 17
655 54 244 41 607 145 646 186 29 31 166 280 263 478 322 655 492 1276 536
1948 5 93 7 174 4 180 -21 36 -170 226 -248 317 -440 511 -984 901 -1715 1231
-96 44 -177 79 -180 78 -3 0 -61 -24 -127 -53z m274 -411 c21 -8 10 -78 -14
-90 -19 -10 -19 -11 -2 -27 14 -14 18 -15 18 -4 0 8 12 28 26 45 71 85 254 65
301 -34 15 -31 15 -40 4 -73 -25 -69 -22 -67 19 11 29 55 46 77 59 77 25 0
244 -112 249 -127 2 -6 -11 -27 -28 -47 -28 -32 -33 -34 -47 -20 -19 19 -108
64 -125 64 -7 -1 16 -16 52 -34 36 -18 66 -40 68 -49 5 -22 -29 -66 -50 -67
-10 0 -18 -4 -18 -9 0 -24 37 2 103 73 l72 78 62 -42 c91 -61 143 -121 143
-164 0 -33 -15 -54 -65 -91 -11 -8 -15 -15 -9 -15 6 0 36 18 68 40 31 22 63
40 70 40 17 0 66 -63 66 -84 0 -9 -15 -23 -32 -32 -18 -9 -43 -24 -55 -34
l-21 -16 28 -11 c16 -6 34 -7 41 -2 8 5 9 9 3 9 -15 0 -14 28 1 34 7 2 12 -3
12 -12 -1 -28 15 -72 23 -67 4 3 11 -6 14 -19 5 -22 36 -40 64 -37 7 1 11 -4
10 -10 -2 -7 17 -20 41 -29 44 -17 52 -27 71 -93 5 -17 5 -25 -1 -22 -5 4 -9
2 -9 -4 0 -5 6 -14 14 -18 7 -4 23 -36 36 -70 22 -61 22 -61 55 -56 31 5 35 2
53 -33 11 -22 22 -57 26 -79 12 -68 14 -72 48 -73 51 -1 60 -19 64 -133 4
-111 0 -102 72 -140 12 -7 22 -22 23 -33 3 -64 -5 -126 -21 -178 l-18 -58 40
-40 c39 -38 41 -41 35 -89 -3 -28 -22 -84 -41 -126 -34 -73 -35 -78 -21 -106
9 -16 22 -29 29 -29 23 0 25 -22 5 -60 -19 -37 -49 -71 -116 -131 -39 -36 -40
-38 -30 -72 7 -20 20 -38 29 -40 53 -14 -8 -85 -126 -147 -45 -24 -65 -39 -62
-50 3 -8 7 -24 10 -36 7 -24 -59 -129 -109 -173 l-32 -28 51 -13 c119 -30 120
-26 -44 -161 -41 -33 -85 -70 -98 -80 -27 -23 -35 -23 -109 -3 -37 10 -112 17
-205 20 -140 3 -147 3 -130 -14 14 -15 19 -15 27 -4 9 11 11 9 11 -7 0 -11 -2
-18 -5 -16 -2 3 -10 0 -18 -6 -7 -6 -31 -11 -53 -11 -22 0 -40 -3 -40 -8 0 -5
7 -7 15 -4 8 4 15 1 15 -6 0 -6 -4 -8 -10 -5 -5 3 -10 0 -10 -7 0 -8 -5 -5
-11 5 -11 18 -11 18 -25 -1 -15 -22 -89 -64 -97 -55 -3 2 -11 -5 -17 -17 -9
-17 -14 -19 -26 -9 -9 7 -14 8 -14 1 0 -6 -8 -9 -17 -7 -10 1 -26 -7 -36 -19
-15 -18 -16 -19 -10 -2 5 15 3 17 -8 10 -14 -9 -19 -10 -40 -13 -5 0 -7 -7 -3
-14 5 -9 4 -9 -6 0 -11 10 -16 9 -27 -5 -8 -9 -11 -11 -7 -3 5 10 3 12 -7 5
-21 -13 -39 -14 -39 -2 0 6 8 7 18 3 13 -5 14 -3 5 6 -16 16 -34 2 -29 -25 5
-26 44 -106 51 -106 3 0 3 17 1 38 -7 51 3 64 50 60 37 -3 39 -5 44 -42 5 -39
5 -39 18 -14 31 57 135 78 199 38 31 -19 50 -57 41 -82 -3 -7 0 -26 7 -42 12
-28 12 -28 42 55 l31 84 43 0 43 0 37 -93 c19 -50 39 -95 42 -98 4 -4 6 34 6
84 -1 50 2 95 5 101 4 6 23 11 41 11 31 0 38 -5 65 -52 l30 -53 0 41 c0 48 17
67 57 62 l28 -3 0 -145 0 -145 -37 -3 c-34 -3 -38 0 -65 45 l-28 48 -3 -35
c-5 -51 -16 -59 -86 -59 -68 0 -78 4 -95 37 -18 34 -62 30 -83 -8 -14 -24 -24
-30 -51 -30 -18 0 -38 5 -43 10 -8 8 -19 8 -38 0 -72 -27 -163 1 -193 60 -12
24 -13 23 -13 -17 0 -37 -3 -43 -25 -49 -42 -10 -69 3 -95 48 l-25 43 -5 -45
c-5 -45 -5 -45 -45 -45 -38 0 -40 2 -45 35 -5 34 -6 34 -18 13 -31 -56 -133
-71 -195 -29 l-36 25 -3 -22 c-3 -21 -7 -22 -143 -22 l-140 0 -13 27 c-18 39
-66 39 -84 1 -12 -26 -19 -28 -76 -31 -72 -3 -83 3 -115 62 l-22 41 -3 -40
c-2 -22 -8 -45 -13 -51 -7 -8 -58 -12 -153 -13 -167 -1 -169 -1 -164 83 2 31
2 56 1 56 -2 0 -13 -9 -25 -20 -14 -13 -36 -20 -60 -20 -37 0 -38 -1 -38 -38
0 -43 -14 -62 -46 -62 -53 0 -54 2 -54 151 l0 139 26 6 c42 11 153 -2 172 -19
16 -15 19 -14 30 4 12 18 22 19 165 17 l152 -3 5 -29 5 -28 28 31 c23 27 34
31 77 31 42 0 50 -3 50 -18 0 -10 -10 -29 -22 -43 -12 -13 -30 -34 -41 -46
-19 -21 -19 -22 9 -69 15 -26 29 -43 31 -38 2 5 21 54 41 109 l37 100 52 1
c29 1 50 -2 48 -6 -3 -5 11 -48 30 -97 l35 -88 -1 102 c-1 87 -4 101 -17 96
-11 -5 -13 -3 -7 8 7 12 6 12 -7 1 -11 -9 -18 -10 -23 -2 -3 6 -11 8 -16 4 -5
-3 -17 0 -26 8 -14 11 -16 11 -8 -2 7 -12 6 -13 -6 -3 -11 9 -19 9 -26 2 -8
-8 -14 -6 -22 8 -10 20 -36 24 -58 10 -6 -4 -15 -2 -19 4 -5 8 -3 9 6 4 9 -5
11 -4 6 4 -6 9 -11 9 -21 1 -10 -8 -15 -8 -21 1 -5 8 -3 9 6 4 8 -5 11 -4 7 2
-4 6 -20 10 -36 9 -22 -1 -27 2 -23 13 3 9 1 12 -5 8 -6 -4 -17 -2 -25 5 -7 7
-22 14 -33 16 -11 2 -31 10 -44 19 -13 8 -21 11 -18 6 3 -5 -3 -9 -13 -9 -14
0 -16 4 -9 12 7 8 6 15 -2 20 -8 4 -9 3 -5 -4 11 -18 -3 -14 -25 7 -12 11 -30
18 -41 16 -16 -3 -17 -1 -8 9 8 11 4 17 -21 30 -38 19 -151 16 -251 -8 l-68
-16 -130 106 c-71 58 -130 109 -130 114 0 5 8 13 17 18 14 8 12 12 -13 25 -41
21 -74 59 -88 101 -7 21 -26 45 -47 59 -40 27 -68 78 -69 128 0 48 14 59 69
53 34 -4 42 -3 31 5 -8 6 -29 11 -45 11 -76 0 -150 97 -143 188 2 41 -2 56
-27 92 -26 38 -30 53 -31 114 -1 39 -6 84 -13 99 -14 35 -14 112 -1 137 7 13
5 29 -5 54 -20 47 -19 74 5 121 17 33 18 45 9 68 -17 40 -7 128 19 164 16 23
22 46 22 83 0 47 4 56 39 91 24 25 41 53 46 75 3 20 18 48 33 63 15 15 32 48
40 76 12 49 49 95 76 95 12 0 38 42 41 65 0 6 7 9 15 7 11 -3 11 0 -1 14 -8
10 -9 15 -2 11 16 -10 42 2 54 24 8 15 6 18 -8 13 -15 -5 -15 -4 -3 5 9 6 18
7 24 1 20 -20 26 -9 11 19 -13 26 -13 35 0 77 8 26 11 52 8 57 -3 6 -2 7 3 4
5 -3 20 10 33 28 13 19 43 44 68 56 37 18 49 20 70 10 43 -20 38 -4 -6 19 -23
11 -41 27 -41 36 0 9 17 38 38 65 41 53 56 57 122 34 61 -22 63 -20 30 32 -17
26 -30 52 -30 58 0 14 94 95 110 95 6 0 24 -16 41 -35 17 -19 36 -35 42 -35 6
0 -7 18 -28 41 l-40 41 35 29 c43 36 68 37 96 2 l22 -27 17 62 c17 58 21 64
61 82 86 39 99 25 64 -68 -20 -52 -19 -72 1 -72 6 0 29 -9 51 -20 30 -14 45
-17 52 -9 7 6 7 10 1 9 -5 -1 -20 1 -32 5 -38 12 -26 47 17 54 13 1 33 9 44
17 17 12 22 10 43 -18 13 -18 23 -27 23 -21 0 7 -6 18 -13 25 -8 7 -12 19 -10
25 3 7 -5 39 -18 72 -12 33 -19 67 -16 75 3 8 26 18 51 21 43 7 50 5 101 -34
30 -23 55 -38 55 -34 0 4 -4 25 -9 46 -7 29 -6 41 6 52 17 17 89 20 98 4 4 -6
13 -47 20 -92 l13 -82 -1 95 -2 95 45 5 c51 6 218 2 238 -5z m-716 -263 c-7
-2 -10 -8 -6 -13 8 -14 -6 -11 -22 5 -16 16 0 27 25 18 11 -4 11 -7 3 -10z
m1742 -388 c3 -8 2 -12 -4 -9 -6 3 -10 10 -10 16 0 14 7 11 14 -7z m-1954
-2518 c0 -2 -7 -7 -16 -10 -8 -3 -12 -2 -9 4 6 10 25 14 25 6z m27 -41 c0 -8
-4 -12 -9 -9 -5 3 -6 10 -3 15 9 13 12 11 12 -6z m1440 -23 c-10 -10 -15 -21
-12 -24 3 -2 -2 -5 -10 -5 -12 0 -10 6 7 24 25 27 39 32 15 5z m-47 -25 c0 -2
-10 -12 -22 -23 l-23 -19 19 23 c18 21 26 27 26 19z"/>
<path d="M2429 4339 c-6 -4 -6 -45 1 -115 5 -60 10 -117 10 -126 0 -16 11 -18
100 -18 93 0 100 1 100 20 0 18 -7 20 -75 20 l-75 0 0 40 0 40 75 0 c68 0 75
2 75 20 0 18 -7 20 -75 20 -72 0 -75 1 -81 25 -4 14 -3 29 1 33 4 4 45 6 91 5
77 -2 84 -1 84 16 0 17 -10 20 -72 25 -78 7 -143 5 -159 -5z"/>
<path d="M2288 4325 c-2 -3 2 -36 10 -75 9 -38 12 -73 9 -77 -4 -3 -30 16 -59
44 -78 73 -100 86 -132 74 -14 -6 -26 -14 -26 -19 0 -9 89 -234 95 -240 2 -2
12 -1 24 3 19 6 19 7 -5 78 -13 39 -23 76 -21 81 2 5 35 -21 74 -57 52 -49 78
-67 98 -67 26 0 27 2 22 38 -4 20 -12 79 -18 130 -12 90 -13 92 -39 92 -15 0
-29 -2 -32 -5z"/>
<path d="M2792 4310 c-47 -11 -80 -46 -90 -94 -16 -77 11 -135 75 -162 52 -22
146 -16 156 9 3 7 12 29 21 50 16 37 16 37 -9 47 -15 6 -44 13 -66 16 -34 6
-39 4 -39 -13 0 -12 11 -23 30 -30 62 -23 0 -64 -65 -43 -40 13 -60 55 -51
103 10 51 39 77 88 77 33 0 46 -6 72 -35 56 -60 105 -35 56 28 -30 38 -118 62
-178 47z"/>
<path d="M2543 4273 c15 -2 39 -2 55 0 15 2 2 4 -28 4 -30 0 -43 -2 -27 -4z"/>
<path d="M2824 4242 c-38 -6 -59 -87 -29 -112 13 -11 14 -10 9 3 -3 9 0 30 8
48 12 28 16 30 51 26 38 -5 47 3 25 20 -19 14 -40 19 -64 15z"/>
<path d="M3025 4119 c-48 -97 -57 -123 -45 -127 8 -3 47 -22 87 -43 63 -33 73
-36 84 -22 16 18 -1 34 -68 64 -46 20 -49 25 -31 64 15 32 30 32 95 -5 30 -17
58 -28 63 -25 23 14 6 37 -50 65 -62 31 -69 42 -45 73 13 18 15 18 52 1 21
-10 54 -28 74 -40 36 -23 59 -18 59 11 0 11 -186 105 -207 105 -5 0 -36 -55
-68 -121z"/>
<path d="M1863 4193 c-28 -14 -34 -24 -49 -90 -10 -40 -21 -73 -25 -73 -5 0
-21 16 -36 35 -31 39 -40 42 -68 21 -18 -13 -18 -15 9 -47 16 -19 57 -65 92
-102 56 -61 65 -67 84 -57 l21 11 -25 34 c-27 35 -32 60 -17 83 6 11 21 7 71
-18 46 -23 69 -30 91 -25 16 4 29 11 29 16 0 5 -38 28 -85 51 -47 23 -85 48
-85 55 0 7 9 36 20 65 11 29 20 54 20 56 0 5 -17 0 -47 -15z"/>
<path d="M2520 4162 c0 -9 87 -9 96 1 4 4 -16 7 -44 7 -29 0 -52 -3 -52 -8z"/>
<path d="M2240 4096 c0 -2 7 -7 16 -10 8 -3 12 -2 9 4 -6 10 -25 14 -25 6z"/>
<path d="M3303 4023 c-137 -155 -127 -140 -102 -153 19 -11 26 -7 66 32 l44
43 18 -22 c16 -19 17 -30 10 -70 -5 -26 -12 -55 -14 -64 -5 -14 30 -57 39 -48
7 7 36 99 36 114 0 11 11 13 49 8 41 -5 52 -2 70 16 23 23 27 67 8 92 -19 25
-140 119 -153 119 -6 0 -38 -30 -71 -67z m139 -34 c27 -22 38 -38 36 -53 -5
-35 -51 -33 -99 5 l-40 32 22 23 c29 31 33 30 81 -7z"/>
<path d="M3387 3984 c-3 -4 7 -17 22 -30 31 -26 41 -29 41 -15 0 13 -56 52
-63 45z"/>
<path d="M1566 3996 l-39 -33 52 -77 c29 -43 51 -80 49 -81 -2 -2 -45 11 -96
28 l-94 32 -34 -40 -35 -39 23 -18 c13 -10 26 -18 30 -18 6 0 83 -43 164 -91
30 -18 31 -18 49 1 17 19 15 21 -64 71 -120 76 -105 83 52 23 62 -24 70 -25
84 -11 14 14 11 22 -30 85 -69 103 -68 114 4 51 35 -30 69 -58 76 -62 15 -9
43 2 43 17 -1 10 -84 96 -165 168 l-30 27 -39 -33z"/>
<path d="M3117 4024 c-3 -5 2 -15 12 -21 14 -9 18 -8 18 3 0 7 -4 11 -8 8 -4
-2 -9 1 -11 8 -3 7 -7 8 -11 2z"/>
<path d="M3163 3995 c0 -8 4 -15 9 -15 4 0 8 4 8 9 0 6 -4 12 -8 15 -5 3 -9
-1 -9 -9z"/>
<path d="M1870 3970 c0 -5 5 -10 10 -10 6 0 10 5 10 10 0 6 -4 10 -10 10 -5 0
-10 -4 -10 -10z"/>
<path d="M3508 3789 c-65 -44 -118 -83 -118 -88 0 -5 7 -14 15 -21 12 -10 36
1 137 61 68 40 125 74 127 75 6 5 -28 54 -37 53 -4 0 -60 -36 -124 -80z"/>
<path d="M3463 3823 c4 -3 1 -13 -6 -22 -11 -14 -10 -14 5 -2 16 12 16 31 1
31 -4 0 -3 -3 0 -7z"/>
<path d="M1437 3690 c-3 -11 -1 -20 4 -20 5 0 9 9 9 20 0 11 -2 20 -4 20 -2 0
-6 -9 -9 -20z"/>
<path d="M2514 3696 c-18 -8 -40 -28 -50 -45 -10 -17 -21 -30 -24 -28 -50 27
-58 29 -86 15 -26 -12 -29 -19 -29 -58 0 -40 3 -46 29 -59 26 -12 33 -12 61 3
l32 17 35 -35 c20 -20 43 -36 52 -36 13 0 16 -11 16 -50 0 -56 3 -55 -107 -64
-34 -3 -67 -7 -74 -8 -6 -2 -33 26 -58 62 -26 36 -62 75 -81 88 -73 49 -175
53 -265 11 -27 -13 -62 -22 -77 -20 -34 3 -68 -30 -68 -66 0 -36 9 -50 40 -61
51 -19 97 23 86 79 -4 22 0 32 17 44 60 42 190 -16 263 -117 19 -28 34 -51 32
-53 -2 -1 -22 -12 -46 -24 -40 -20 -46 -21 -67 -7 -39 26 -104 36 -157 25
-135 -29 -215 -181 -159 -304 l18 -40 -29 -58 -28 -57 -34 22 c-74 51 -126
135 -126 203 0 45 25 85 48 78 10 -2 30 5 45 17 70 56 -7 156 -81 104 -23 -16
-30 -66 -13 -92 5 -8 -1 -35 -15 -70 -39 -96 -28 -199 29 -260 12 -13 42 -38
67 -55 25 -16 46 -31 48 -32 1 -1 -4 -42 -13 -90 -8 -48 -15 -92 -15 -96 0 -5
-14 -9 -30 -9 -24 0 -33 6 -41 28 -6 15 -20 37 -31 49 l-21 23 26 21 c34 26
35 62 2 94 -28 29 -51 31 -83 9 -24 -17 -30 -61 -12 -95 9 -15 7 -19 -5 -19
-29 0 -75 -30 -90 -60 -32 -62 -7 -144 53 -169 28 -12 29 -14 19 -42 -9 -24
-9 -35 3 -57 19 -34 72 -42 101 -16 23 21 25 71 3 95 -15 17 -15 20 10 49 14
18 26 38 26 46 0 9 11 14 34 14 l33 0 7 -62 c4 -35 10 -79 12 -99 6 -32 3 -37
-34 -62 -120 -79 -154 -201 -92 -330 17 -36 20 -51 11 -60 -16 -16 -14 -59 5
-85 19 -28 74 -30 97 -4 38 42 9 112 -46 112 -19 0 -31 8 -42 30 -22 42 -19
89 11 148 24 49 95 122 118 122 6 0 24 -30 40 -65 l29 -64 -22 -46 c-17 -36
-21 -63 -20 -117 2 -69 4 -73 43 -116 57 -62 108 -86 181 -86 47 0 71 6 105
27 41 24 45 25 74 10 17 -9 33 -17 35 -19 9 -8 -53 -95 -88 -123 -46 -37 -117
-70 -149 -71 -41 0 -82 28 -82 56 0 28 -40 74 -65 74 -27 0 -55 -20 -65 -46
-21 -55 33 -109 86 -85 22 10 36 8 89 -14 137 -54 249 -16 331 113 20 31 37
58 39 60 1 1 24 -2 51 -8 27 -5 66 -12 87 -15 36 -6 37 -7 37 -45 0 -33 -7
-47 -38 -78 l-39 -39 -21 24 c-25 29 -65 30 -93 2 -28 -28 -22 -76 13 -102 26
-20 30 -20 62 -4 34 15 34 15 40 -7 9 -37 71 -86 109 -86 44 0 94 33 114 74
15 33 18 34 37 20 30 -20 53 -17 81 11 32 31 32 59 -1 91 -28 29 -67 27 -95
-6 -15 -18 -17 -17 -43 11 -15 16 -42 33 -59 37 -29 8 -32 12 -32 47 l0 39 95
13 c52 6 100 12 107 12 7 1 24 -19 38 -43 78 -134 200 -177 340 -121 50 20 68
23 89 15 33 -12 70 3 85 36 20 44 -16 94 -67 94 -26 0 -62 -41 -62 -73 0 -35
-48 -61 -97 -54 -75 13 -175 85 -212 155 -11 20 -7 24 39 46 l51 25 42 -19
c105 -48 235 -2 289 103 26 51 29 148 6 191 -15 28 -14 32 14 88 16 32 33 58
38 58 18 0 91 -73 115 -114 33 -58 39 -97 21 -140 -13 -32 -19 -36 -50 -36
-64 0 -96 -57 -60 -108 38 -54 138 0 115 61 -9 22 -6 36 16 79 40 78 39 167
-2 233 -16 26 -52 64 -80 83 -31 21 -49 41 -47 51 1 9 8 53 14 99 11 73 15 82
33 82 12 0 31 -13 43 -30 26 -34 27 -40 8 -40 -8 0 -24 -12 -36 -27 -37 -47
-8 -106 51 -106 44 0 73 35 64 80 -5 30 -4 33 20 33 64 0 115 55 115 124 0 44
-47 102 -91 111 -23 5 -28 10 -20 18 20 20 13 84 -11 101 -30 21 -50 20 -82
-5 -35 -28 -35 -70 1 -99 l26 -20 -26 -28 c-14 -15 -29 -39 -32 -54 -5 -20
-14 -28 -29 -28 -19 0 -23 8 -33 83 -6 45 -14 89 -18 98 -4 11 8 25 42 48 119
82 150 187 93 319 -16 37 -19 54 -11 74 21 56 -43 107 -97 77 -19 -10 -28 -24
-30 -48 -4 -44 21 -71 65 -71 30 0 36 -5 49 -36 19 -46 11 -85 -31 -151 -29
-44 -90 -103 -107 -103 -3 0 -13 18 -23 41 -18 38 -18 43 -2 87 46 128 -16
261 -137 297 -63 19 -84 19 -141 -1 -46 -15 -47 -15 -110 17 l-63 33 28 42
c55 79 150 143 213 144 15 0 42 -7 58 -16 24 -12 30 -20 25 -36 -5 -22 9 -58
28 -70 6 -4 25 -8 43 -8 57 0 82 65 42 109 -18 19 -29 22 -62 18 -29 -4 -52 0
-81 15 -51 26 -150 35 -201 18 -48 -16 -114 -76 -156 -141 -21 -33 -37 -48
-46 -45 -8 4 -40 9 -71 12 -104 10 -102 8 -102 63 0 44 3 50 25 55 13 3 36 21
51 40 26 32 27 33 45 15 11 -11 30 -19 44 -19 26 0 75 40 75 60 0 16 -21 53
-34 62 -20 13 -73 8 -87 -8 -11 -14 -15 -12 -30 19 -18 34 -70 67 -106 67 -10
-1 -32 -7 -49 -14z m36 -440 l0 -55 -46 -7 c-49 -7 -48 -8 -97 67 -21 31 -26
27 48 42 11 3 37 5 58 6 l37 1 0 -54z m128 45 c23 -5 45 -11 48 -14 3 -3 -8
-26 -26 -51 -31 -47 -47 -53 -97 -40 -20 6 -23 13 -23 60 0 52 1 54 28 54 15
-1 46 -5 70 -9z m-350 -88 l31 -48 -42 -17 c-57 -23 -61 -23 -73 15 -6 17 -14
40 -19 50 -5 13 0 20 26 32 19 8 37 14 40 15 4 0 20 -21 37 -47z m582 12 l30
-15 -27 -49 -27 -48 -58 25 c-32 14 -58 28 -58 32 0 4 13 26 30 48 32 45 36
45 110 7z m-804 -59 c28 -28 34 -42 34 -76 0 -79 -86 -134 -153 -99 -104 56
-66 208 52 209 24 0 42 -9 67 -34z m444 -56 c0 -27 -2 -50 -5 -50 -5 0 -65 86
-65 94 0 3 16 6 35 6 l35 0 0 -50z m70 5 c-17 -25 -33 -45 -35 -45 -3 0 -5 20
-5 45 0 45 0 45 35 45 l36 0 -31 -45z m562 17 c27 -25 31 -36 31 -77 0 -41 -4
-52 -31 -77 -35 -30 -94 -38 -133 -18 -25 14 -49 62 -49 97 2 92 112 137 182
75z m-750 -75 c65 -100 65 -99 20 -130 -21 -15 -53 -43 -72 -62 -19 -19 -37
-35 -41 -35 -3 0 -31 28 -62 63 l-55 63 23 69 c21 63 28 72 62 87 64 29 73 25
125 -55z m394 49 c49 -23 52 -26 59 -72 4 -27 13 -60 20 -75 13 -25 11 -28
-48 -87 l-63 -62 -63 65 c-35 36 -66 65 -70 65 -3 0 -12 4 -19 9 -11 6 -1 28
44 95 32 49 64 86 73 86 9 0 39 -11 67 -24z m-886 -218 l47 -22 -22 -48 c-13
-27 -25 -51 -28 -54 -5 -6 -97 44 -97 52 0 7 44 94 48 94 2 0 26 -10 52 -22z
m270 -60 l58 -63 -52 -55 c-28 -31 -56 -64 -61 -74 -10 -17 -18 -14 -99 38
-98 64 -99 66 -53 151 20 36 27 41 71 47 26 4 51 9 54 12 13 13 27 3 82 -56z
m1055 22 c22 -42 20 -46 -30 -80 l-45 -31 -15 34 c-8 18 -15 39 -17 45 -2 6
17 22 42 35 25 13 46 25 47 26 1 0 9 -12 18 -29z m-659 -1 c153 -28 257 -152
258 -309 1 -90 -21 -146 -84 -214 -63 -69 -137 -101 -230 -100 -150 0 -262 88
-305 239 -20 69 -14 126 21 205 50 109 135 169 275 189 3 1 32 -4 65 -10z
m424 -4 c23 -8 53 -15 65 -15 17 0 27 -11 44 -49 11 -27 21 -52 21 -55 0 -6
-165 -115 -186 -123 -7 -2 -15 6 -19 18 -4 12 -27 44 -52 70 l-44 47 58 61
c32 33 61 61 64 61 4 0 26 -7 49 -15z m-1163 -152 c42 -27 44 -30 41 -73 l-3
-45 -59 -3 -59 -3 7 61 c7 64 14 90 24 90 2 0 25 -12 49 -27z m1460 -78 l6
-65 -57 0 c-48 0 -56 3 -56 19 0 10 -3 32 -6 49 -6 28 -2 33 42 61 58 36 62
32 71 -64z m-1295 -32 c8 -10 -1 -13 -47 -13 -55 0 -57 1 -51 23 3 12 6 28 6
35 0 14 72 -21 92 -45z m1152 11 c10 -37 -3 -46 -65 -42 l-53 3 49 32 c28 18
53 33 56 33 4 0 10 -12 13 -26z m-1279 -95 c5 -30 3 -45 -8 -57 -20 -22 -85
-57 -93 -50 -3 3 -8 38 -11 77 l-6 71 56 0 55 0 7 -41z m130 32 c-27 -24 -89
-59 -97 -55 -4 3 -8 18 -8 35 0 29 1 29 57 29 33 0 53 -4 48 -9z m1150 -43
c-4 -18 -9 -34 -10 -36 -2 -2 -27 12 -57 32 l-53 36 63 0 64 0 -7 -32z m141
-35 c-10 -95 -13 -98 -70 -61 -46 30 -48 33 -42 67 3 20 6 42 6 49 0 8 18 12
56 12 l57 0 -7 -67z m-1167 11 c6 -15 32 -51 57 -80 l46 -53 -72 -68 c-40 -37
-75 -69 -79 -71 -4 -1 -28 7 -53 18 -39 17 -49 28 -72 80 -15 33 -26 67 -24
75 3 12 163 124 179 125 3 0 11 -12 18 -26z m911 -54 l90 -60 -21 -53 c-12
-28 -23 -58 -26 -64 -3 -7 -17 -13 -32 -13 -15 0 -48 -7 -74 -16 -26 -9 -50
-14 -54 -12 -5 1 -32 29 -62 61 l-55 58 56 57 c31 31 61 67 67 80 7 12 14 22
17 22 3 0 45 -27 94 -60z m-1117 -122 c30 -68 30 -69 -35 -110 -21 -14 -28
-15 -37 -5 -9 11 -51 103 -51 112 0 5 83 64 90 65 3 0 18 -28 33 -62z m1280
16 c23 -15 44 -28 46 -30 6 -5 -29 -93 -39 -99 -8 -5 -83 27 -99 41 -4 3 41
114 46 114 2 0 22 -12 46 -26z m-847 -102 c27 -26 59 -54 72 -62 l22 -15 -57
-88 c-54 -82 -60 -87 -87 -82 -43 8 -96 44 -96 66 0 10 -10 39 -22 64 l-22 45
65 60 c35 32 67 59 70 60 3 0 28 -22 55 -48z m443 -28 c51 -56 59 -69 50 -86
-6 -10 -13 -38 -17 -61 -6 -37 -12 -44 -52 -64 -25 -12 -53 -22 -62 -23 -12 0
-40 33 -79 92 -55 83 -59 94 -44 103 10 5 43 31 74 57 31 26 59 47 63 47 3 1
34 -29 67 -65z m317 -92 c45 -36 56 -90 29 -142 -19 -37 -43 -50 -94 -50 -49
0 -96 36 -105 80 -7 39 14 92 45 114 31 21 98 20 125 -2z m-1059 -18 c28 -17
43 -52 43 -96 0 -21 -10 -40 -34 -64 -56 -56 -135 -44 -171 26 -19 37 -19 54
2 97 28 60 101 77 160 37z m543 -149 c0 -3 -19 -5 -42 -3 l-43 3 -3 49 c-5 84
5 88 49 19 21 -34 39 -65 39 -68z m-120 39 c0 -42 -1 -45 -22 -38 -13 3 -24 8
-26 9 -3 3 41 75 46 75 1 0 2 -21 2 -46z m-208 -22 l38 -17 -31 -47 c-30 -46
-32 -47 -61 -35 -16 7 -29 16 -29 20 5 36 27 97 36 97 5 0 27 -8 47 -18z m578
-28 c26 -59 25 -60 -7 -72 -16 -5 -35 -13 -45 -17 -12 -5 -23 5 -43 40 -15 25
-25 49 -21 52 7 7 78 41 88 42 4 1 16 -20 28 -45z m-392 -20 c19 -6 22 -13 22
-60 0 -52 -1 -54 -27 -54 -32 0 -103 18 -103 26 0 3 12 25 26 50 26 44 38 49
82 38z m215 -73 l17 -30 -42 -6 c-24 -4 -63 -5 -88 -3 l-45 3 0 50 0 50 50 5
c54 6 69 -3 108 -69z"/>
<path d="M2434 2816 c-148 -69 -216 -219 -168 -372 23 -76 105 -161 179 -187
225 -78 447 113 400 344 -13 65 -25 88 -73 141 -83 93 -230 125 -338 74z m184
-201 c58 -48 50 -126 -15 -166 -45 -28 -92 -19 -127 22 -81 96 46 225 142 144z"/>
<path d="M1315 3678 c-68 -40 -110 -161 -69 -202 33 -34 72 -20 144 50 74 71
103 79 108 32 4 -32 -36 -78 -67 -78 -20 0 -41 -26 -41 -51 0 -17 64 -4 99 20
41 29 75 102 66 141 -8 38 -59 66 -100 56 -16 -4 -54 -34 -85 -67 -40 -42 -62
-58 -73 -53 -37 14 -3 91 44 101 19 4 35 16 45 34 l15 29 -33 0 c-18 0 -42 -6
-53 -12z"/>
<path d="M3670 3640 c-12 -7 -10 -9 8 -7 12 0 22 5 22 9 0 11 -12 10 -30 -2z"/>
<path d="M3692 3601 c-9 -6 -3 -14 22 -32 20 -13 36 -26 36 -29 0 -3 -45 -20
-100 -39 -55 -18 -100 -36 -100 -40 0 -4 6 -15 13 -25 13 -18 20 -17 158 23
79 23 145 44 147 46 7 7 -19 45 -31 45 -7 0 -34 14 -60 30 -50 32 -64 35 -85
21z"/>
<path d="M1329 3583 c-13 -16 -12 -17 4 -4 9 7 17 15 17 17 0 8 -8 3 -21 -13z"/>
<path d="M3858 3463 c7 -3 16 -2 19 1 4 3 -2 6 -13 5 -11 0 -14 -3 -6 -6z"/>
<path d="M1203 3425 c-46 -20 -93 -89 -93 -137 0 -24 -4 -37 -10 -33 -5 3 -10
15 -10 26 0 15 -6 20 -22 17 -18 -2 -27 -15 -41 -60 -18 -53 -18 -58 -2 -91
12 -25 14 -41 7 -53 -8 -15 -12 -12 -23 19 -7 21 -16 37 -20 37 -18 0 -38 -34
-45 -75 -3 -25 -12 -45 -18 -45 -7 0 -23 -12 -37 -26 -19 -21 -24 -37 -25 -85
-1 -47 -5 -64 -24 -84 -30 -32 -39 -109 -17 -152 9 -16 32 -40 51 -54 32 -22
36 -29 36 -69 l0 -45 -20 25 c-11 14 -25 42 -32 63 -13 43 -22 46 -44 12 -12
-18 -14 -37 -10 -77 8 -68 8 -94 0 -145 -3 -25 -1 -57 7 -80 7 -21 13 -67 14
-103 0 -87 26 -129 105 -171 32 -17 61 -37 64 -45 7 -18 6 -18 -48 12 -53 29
-66 26 -66 -19 1 -79 67 -157 133 -157 37 0 79 -25 93 -55 8 -17 8 -22 0 -20
-6 2 -39 6 -73 10 -63 6 -63 6 -63 -20 0 -43 27 -93 62 -115 27 -17 42 -20 83
-15 72 9 100 9 121 -1 13 -6 -7 -10 -66 -14 -66 -4 -85 -8 -88 -21 -3 -19 35
-76 69 -101 33 -25 107 -26 143 -3 25 17 47 17 91 0 14 -5 11 1 -10 19 -16 14
-26 25 -21 26 5 0 3 7 -4 15 -11 13 -10 14 5 9 15 -6 14 -1 -5 37 -18 34 -23
60 -22 117 0 40 3 76 6 79 12 12 56 -17 76 -49 13 -22 20 -51 20 -85 0 -44 -5
-58 -30 -87 l-31 -35 38 -25 c40 -27 53 -32 53 -17 0 5 -13 14 -30 21 -36 15
-37 22 -8 61 18 24 22 41 20 92 -2 51 -8 68 -31 97 -29 36 -75 60 -88 46 -5
-4 -8 -50 -8 -102 0 -52 -3 -94 -6 -94 -3 0 -13 8 -22 18 -21 23 -21 78 -2
112 32 56 11 179 -35 207 -16 11 -21 9 -35 -9 -14 -21 -15 -20 -15 30 0 57
-25 132 -45 132 -30 0 -75 -85 -75 -142 0 -25 -3 -29 -12 -20 -20 20 -9 100
23 160 35 66 38 120 8 189 l-21 48 -33 -39 c-23 -25 -38 -57 -47 -95 l-13 -56
-11 50 c-19 77 -17 83 27 110 63 40 91 139 54 192 -13 19 -13 26 5 65 20 45
27 128 10 128 -5 0 -16 -10 -25 -23 -8 -13 -33 -34 -56 -46 l-41 -23 4 28 c2
23 13 34 52 54 80 41 108 110 66 162 l-19 25 24 23 c33 31 68 106 62 130 -3
11 -1 20 3 20 11 0 70 84 70 99 0 17 -73 13 -98 -5 -22 -15 -27 -9 -16 20 4
11 19 16 43 16 38 0 75 28 100 77 16 31 15 31 -26 35 l-38 3 28 24 c27 24 47
75 47 119 0 25 -4 26 -47 7z m33 -21 c-3 -9 -9 -28 -12 -42 -4 -15 -24 -43
-45 -62 -23 -20 -58 -73 -85 -125 -25 -49 -43 -83 -40 -73 2 9 -2 24 -9 35
-19 24 -19 65 0 109 16 38 35 38 35 -1 0 -13 4 -26 9 -29 14 -9 43 44 37 67
-7 28 20 82 56 112 34 29 63 34 54 9z m-6 -155 c0 -20 -67 -79 -90 -79 l-22 0
19 32 c25 44 93 78 93 47z m-226 -176 l13 -48 15 30 16 30 -1 -27 c-1 -16 -5
-28 -8 -28 -4 0 -9 -8 -13 -17 -3 -10 -12 -36 -20 -58 -12 -34 -14 -36 -15
-14 -1 14 -8 34 -16 45 -17 22 -20 97 -4 126 14 25 18 20 33 -39z m186 47 c0
-5 -16 -28 -36 -50 -27 -29 -44 -40 -65 -40 l-29 0 23 38 c25 38 58 62 90 62
9 0 17 -4 17 -10z m-100 -107 c0 -5 -14 -16 -30 -25 -33 -19 -35 -17 -20 13
10 18 50 28 50 12z m-156 -45 c3 -24 9 -69 12 -102 5 -39 9 -54 16 -45 5 9 6
-1 2 -26 -8 -48 -14 -58 -14 -23 0 14 -11 35 -26 49 -56 52 -67 103 -34 157
26 43 37 40 44 -10z m186 22 c0 -16 -37 -85 -52 -97 -7 -6 -23 -13 -34 -17
-19 -6 -21 -3 -16 21 6 36 24 61 59 84 32 21 43 24 43 9z m-149 -57 c-8 -16
-11 -15 -20 10 -14 37 -3 55 16 28 10 -15 11 -26 4 -38z m14 -70 c-9 -37 -18
-20 -9 19 4 18 9 27 11 20 3 -7 2 -24 -2 -39z m44 -32 c-6 -16 -19 -37 -30
-47 -18 -16 -19 -16 -19 2 0 49 13 66 52 73 4 0 2 -12 -3 -28z m-115 -24 c20
-27 24 -39 17 -63 l-8 -29 -21 47 c-20 44 -28 78 -18 78 3 0 16 -15 30 -33z
m-44 4 c0 -10 9 -38 20 -62 11 -24 20 -61 20 -81 0 -21 5 -38 10 -38 6 0 10 9
10 20 0 11 4 20 8 20 5 0 7 -14 4 -30 -2 -17 -7 -30 -11 -28 -29 14 -82 57
-92 75 -15 28 -15 93 0 121 14 27 31 29 31 3z m198 -17 c5 -48 -14 -81 -58
-104 -34 -17 -40 -18 -40 -5 0 21 35 88 54 104 9 8 16 20 16 28 0 27 25 7 28
-23z m-121 -101 c-3 -10 -5 -2 -5 17 0 19 2 27 5 18 2 -10 2 -26 0 -35z m118
-75 c-4 -18 -16 -49 -26 -69 -18 -35 -17 -37 3 -78 19 -40 20 -46 7 -88 -11
-34 -24 -52 -52 -70 l-37 -23 0 48 c0 40 6 57 30 87 29 36 40 75 21 75 -4 0
-21 -10 -36 -22 l-28 -22 5 54 c4 43 11 58 32 75 14 11 39 30 54 42 35 29 35
29 27 -9z m-198 -70 c15 -16 46 -108 39 -115 -8 -8 -65 33 -80 58 -19 32 -21
82 -4 112 11 22 12 21 21 -8 5 -17 16 -37 24 -47z m60 -35 c-2 -16 -4 -5 -4
22 0 28 2 40 4 28 2 -13 2 -35 0 -50z m4 -100 c-4 -42 -5 -44 -11 -18 -7 35 0
92 9 77 3 -6 4 -32 2 -59z m69 49 c0 -5 -11 -19 -25 -32 -28 -27 -36 -8 -8 22
17 19 33 24 33 10z m-130 -85 c26 -49 55 -137 44 -137 -12 0 -68 41 -81 59
-16 23 -22 109 -9 130 10 16 9 16 46 -52z m22 36 c10 -9 18 -28 18 -41 0 -25
0 -25 -25 8 -36 48 -32 68 7 33z m55 -145 c-3 -8 -6 -5 -6 6 -1 11 2 17 5 13
3 -3 4 -12 1 -19z m143 -4 c17 -44 12 -126 -11 -169 -31 -59 -36 -61 -53 -20
-20 47 -20 105 -1 152 28 68 49 80 65 37z m-146 -123 c8 -15 17 -44 21 -64 5
-25 12 -37 20 -33 7 2 15 -3 18 -13 3 -14 -8 -10 -54 17 -82 48 -101 72 -107
131 -8 82 2 89 48 36 22 -26 47 -59 54 -74z m3 87 c-3 -8 -6 -5 -6 6 -1 11 2
17 5 13 3 -3 4 -12 1 -19z m224 -180 c7 -12 12 -48 13 -78 0 -44 -6 -67 -28
-104 -18 -31 -26 -57 -23 -73 4 -24 4 -24 -24 7 -16 17 -29 37 -29 43 0 7 10
1 21 -13 17 -20 20 -21 14 -5 -31 86 -29 155 6 212 24 39 34 41 50 11z m-162
-103 c17 -15 31 -23 31 -18 1 21 23 -35 26 -64 2 -29 0 -32 -16 -23 -10 6 -30
10 -45 10 -56 0 -105 58 -105 125 l0 35 39 -19 c21 -11 52 -32 70 -46z m31 19
c0 -8 -4 -12 -10 -9 -5 3 -10 10 -10 16 0 5 5 9 10 9 6 0 10 -7 10 -16z m241
-101 c13 -41 7 -94 -20 -152 l-18 -42 -22 37 c-28 47 -31 123 -6 182 17 41 18
42 36 26 10 -9 23 -32 30 -51z m-100 -53 l-6 -64 -17 26 c-11 17 -15 34 -10
45 8 20 35 63 38 60 1 -1 -1 -31 -5 -67z m-39 -90 c31 -23 42 -26 32 -7 -4 6
2 3 14 -7 12 -11 22 -24 22 -29 0 -6 -7 -2 -15 9 -17 22 -20 12 -5 -17 8 -13
18 -18 35 -15 15 3 25 0 25 -7 0 -6 15 -27 32 -47 l33 -35 -40 38 c-44 40 -72
45 -150 27 -65 -15 -121 22 -138 91 -4 14 -4 28 -2 31 11 11 132 -14 157 -32z
m100 -140 c21 -6 51 -23 68 -37 l32 -26 -49 -23 c-56 -28 -83 -30 -123 -9 -31
16 -70 61 -70 81 0 7 15 14 38 17 20 2 44 4 52 5 8 1 32 -3 52 -8z"/>
<path d="M3820 3429 c-12 -8 -10 -9 7 -4 32 9 69 -34 82 -93 5 -25 7 -50 5
-54 -3 -4 8 -5 25 -2 55 11 89 -30 106 -128 4 -29 11 -38 26 -38 11 0 28 -14
39 -32 11 -18 20 -26 21 -18 0 10 3 8 8 -5 12 -29 3 -168 -11 -176 -7 -4 8 -9
31 -11 27 -2 47 -9 51 -18 4 -8 12 -25 18 -37 18 -35 14 -83 -13 -163 -30 -88
-30 -90 -6 -90 11 0 26 -3 35 -6 18 -7 40 -79 30 -96 -4 -7 -9 -21 -10 -33 -4
-34 -55 -135 -77 -150 -12 -8 -19 -16 -16 -18 2 -2 17 -11 32 -21 29 -17 30
-25 12 -70 -7 -16 -5 -17 16 -11 22 7 23 7 9 -11 -21 -28 -78 -83 -130 -127
l-45 -38 24 -20 c20 -16 23 -26 18 -59 -3 -26 -1 -40 6 -40 26 0 -12 -25 -123
-81 -81 -40 -76 -35 -57 -57 10 -10 17 -30 17 -45 0 -35 -51 -108 -106 -153
-36 -30 -47 -34 -59 -24 -8 7 -30 10 -50 8 -22 -2 -36 1 -39 9 -3 7 -12 13
-21 13 -21 0 -19 48 6 151 26 102 35 120 55 112 8 -3 23 2 33 11 10 9 25 14
35 10 9 -3 16 -2 17 2 0 5 2 18 4 29 2 11 6 38 10 60 10 66 25 104 39 99 8 -3
25 6 39 20 15 14 31 26 38 26 8 0 10 14 5 48 -17 113 -17 142 -3 142 8 0 22
12 32 26 13 21 23 25 52 22 22 -2 38 2 40 9 3 7 -12 45 -32 86 -34 73 -35 77
-23 122 9 32 20 51 36 58 22 10 22 11 3 31 -10 12 -37 53 -60 91 -39 65 -41
70 -21 73 14 2 20 11 20 28 0 14 7 27 15 30 8 4 15 9 15 13 0 3 -30 37 -66 75
-36 38 -61 72 -55 75 5 4 10 24 9 46 0 35 -6 44 -40 68 -22 15 -37 33 -35 40
2 7 0 20 -5 30 -6 13 -3 25 11 44 12 14 21 28 21 32 0 3 -21 17 -46 30 -57 31
-79 73 -55 111 8 14 20 28 26 32 6 5 6 8 -1 8 -18 0 -48 -52 -49 -85 -1 -38 9
-52 59 -77 53 -26 52 -25 34 -45 -9 -10 -18 -36 -20 -57 -3 -37 0 -42 39 -70
43 -32 56 -69 32 -93 -14 -14 -2 -36 64 -108 36 -41 44 -56 40 -78 -4 -18 -12
-27 -24 -27 -10 0 -21 -5 -24 -10 -7 -12 56 -133 86 -166 17 -18 18 -23 5 -33
-8 -7 -18 -26 -21 -42 -4 -16 -11 -29 -16 -29 -18 0 -8 -47 26 -119 19 -40 35
-75 35 -77 0 -2 -11 -2 -24 2 -19 4 -32 -1 -51 -20 -14 -14 -35 -26 -45 -26
-23 0 -24 -9 -9 -115 l10 -76 -27 -22 c-15 -12 -37 -21 -48 -22 -17 0 -23 -12
-37 -70 -10 -38 -18 -82 -18 -97 -1 -20 -6 -28 -19 -28 -10 0 -24 -6 -30 -12
-10 -10 -17 -10 -33 0 -12 8 -22 12 -24 10 -10 -11 -58 -203 -62 -249 -5 -52
-4 -57 16 -64 11 -3 21 -12 21 -18 0 -8 25 -13 74 -14 72 -2 74 -1 113 35 22
20 54 58 73 84 31 45 32 49 22 90 -6 24 -8 44 -4 46 25 8 170 96 189 114 29
27 29 38 -1 38 -18 0 -23 4 -19 18 2 10 -4 29 -14 41 l-19 24 93 92 c92 91
112 125 73 125 -12 0 -20 7 -20 17 0 9 -7 24 -15 33 -14 15 -11 25 24 101 54
114 60 158 30 194 -13 15 -34 31 -46 35 l-21 9 20 63 c24 76 36 198 20 198 -6
0 -22 11 -36 25 -14 14 -32 25 -41 25 -12 0 -15 17 -15 103 0 113 -10 145 -34
112 -13 -19 -15 -19 -21 -2 -4 9 -13 17 -20 17 -8 0 -18 21 -24 52 -16 71 -50
146 -60 130 -5 -8 -18 -10 -39 -6 -24 5 -32 12 -33 28 0 11 -8 41 -17 66 -15
38 -22 45 -47 47 -17 1 -37 -2 -45 -8z"/>
<path d="M3615 1463 c-104 -6 -283 -36 -391 -64 -217 -56 -622 -201 -639 -229
-3 -5 -18 -2 -33 5 -189 92 -607 224 -827 261 -141 24 -400 25 -477 1 -31 -9
-59 -21 -62 -25 -4 -8 42 -49 184 -163 l45 -37 85 19 c129 29 321 35 455 14
139 -21 304 -71 468 -140 79 -33 139 -53 155 -51 15 2 80 27 146 55 245 106
452 154 661 153 113 0 172 -7 320 -36 27 -6 42 4 140 85 61 50 111 96 113 100
11 29 -202 61 -343 52z"/>
<path d="M2700 1070 c-9 -6 -10 -10 -3 -10 6 0 15 5 18 10 8 12 4 12 -15 0z"/>
<path d="M2492 1044 c10 -10 20 -16 22 -13 3 3 -5 11 -17 18 -21 13 -21 12 -5
-5z"/>
<path d="M2475 1027 c11 -46 18 -58 26 -46 4 8 3 16 -3 20 -5 4 3 6 18 6 16 0
23 -2 16 -4 -6 -3 -9 -10 -5 -16 3 -7 2 -8 -2 -4 -5 4 -14 -2 -21 -14 l-12
-22 -6 21 c-6 18 -11 20 -26 12 -12 -6 -21 -7 -25 0 -3 5 -12 7 -20 4 -9 -4
-18 2 -22 12 -7 16 -15 18 -53 13 l-45 -6 42 -1 c23 -1 45 -8 50 -14 4 -7 6
-55 5 -105 l-4 -93 50 0 50 0 4 72 c4 69 5 72 46 108 28 25 36 37 25 36 -10 0
-17 5 -15 12 2 10 -2 10 -16 3 -14 -7 -25 -6 -40 4 -14 11 -19 11 -17 2z"/>
<path d="M2608 1033 c-10 -2 -18 -11 -18 -19 0 -13 2 -13 16 0 8 9 23 16 32
16 13 0 13 -3 -4 -16 -18 -14 -18 -15 4 -4 38 18 16 35 -30 23z"/>
<path d="M2678 1023 c7 -3 16 -2 19 1 4 3 -2 6 -13 5 -11 0 -14 -3 -6 -6z"/>
<path d="M2805 1021 c-8 -13 -58 -20 -76 -11 -12 7 -15 4 -14 -11 1 -11 6 -24
12 -27 5 -4 15 -16 21 -27 11 -20 11 -20 12 2 0 13 -8 24 -20 28 -11 4 -17 11
-14 17 4 6 10 5 16 -3 7 -11 11 -11 15 -1 2 7 22 12 44 12 21 0 39 4 39 9 0
12 -28 22 -35 12z"/>
<path d="M2670 1000 c19 -13 30 -13 30 0 0 6 -10 10 -22 10 -19 0 -20 -2 -8
-10z"/>
<path d="M2595 973 c-57 -14 -96 -97 -76 -163 17 -58 53 -85 113 -84 44 0 55
5 80 32 23 26 28 42 28 82 0 61 -13 95 -42 113 -27 18 -75 27 -103 20z m76
-52 c20 -16 24 -29 24 -71 0 -42 -4 -55 -24 -71 -13 -10 -31 -19 -41 -19 -10
0 -28 9 -41 19 -20 16 -24 29 -24 71 0 42 4 55 24 71 13 10 31 19 41 19 10 0
28 -9 41 -19z"/>
<path d="M2602 898 c-17 -17 -15 -83 3 -98 37 -31 78 23 59 78 -10 30 -42 40
-62 20z"/>
<path d="M3103 973 c-34 -7 -71 -48 -78 -87 -21 -108 55 -185 154 -156 51 14
61 27 61 81 l0 49 -50 0 c-43 0 -50 -3 -50 -20 0 -15 7 -20 24 -20 35 0 43
-20 16 -42 -30 -24 -53 -23 -85 5 -20 17 -27 32 -27 59 0 55 10 75 43 88 27
11 34 10 59 -9 37 -26 60 -27 60 -1 0 34 -72 64 -127 53z"/>
<path d="M1390 965 c-1 -3 -1 -56 -1 -117 -1 -107 1 -113 20 -116 19 -3 21 2
21 42 l0 46 44 0 c58 0 88 24 89 72 2 60 -23 78 -105 78 -37 0 -68 -2 -68 -5z
m125 -55 c9 -30 -12 -50 -51 -50 -32 0 -34 2 -34 35 0 34 1 35 39 35 31 0 41
-4 46 -20z"/>
<path d="M1460 900 c0 -5 7 -10 15 -10 8 0 15 5 15 10 0 6 -7 10 -15 10 -8 0
-15 -4 -15 -10z"/>
<path d="M1610 850 l0 -120 91 0 c81 0 90 2 87 18 -3 14 -14 17 -60 17 -63 0
-81 11 -76 46 3 22 9 24 61 27 31 2 57 7 57 12 0 6 0 13 0 17 0 4 -18 6 -40 4
-57 -4 -80 6 -80 34 0 23 4 24 68 27 52 2 67 6 67 18 0 12 -18 16 -87 18 l-88
3 0 -121z"/>
<path d="M1830 850 l0 -120 25 0 c22 0 25 4 25 38 0 34 22 72 41 72 3 0 18
-25 34 -55 26 -47 34 -55 58 -55 l29 0 -28 48 c-65 110 -62 94 -20 143 l37 44
-25 3 c-20 3 -37 -8 -76 -50 l-49 -53 -1 53 c0 49 -2 52 -25 52 l-25 0 0 -120z"/>
<path d="M2125 918 c-10 -29 -31 -83 -46 -120 l-27 -68 24 0 c17 0 27 8 34 25
8 22 15 25 60 25 45 0 52 -3 60 -25 7 -17 17 -25 34 -25 l25 0 -26 63 c-13 34
-34 88 -46 120 -18 49 -24 57 -47 57 -22 0 -29 -7 -45 -52z m64 -49 c16 -46
14 -49 -19 -49 -33 0 -37 13 -18 55 15 33 24 32 37 -6z"/>
<path d="M2320 851 l0 -121 86 0 c76 0 85 2 82 17 -3 14 -15 18 -56 19 -29 1
-56 5 -60 9 -4 4 -7 48 -7 98 -1 87 -2 92 -23 95 -22 3 -22 2 -22 -117z"/>
<path d="M2790 851 c0 -113 1 -121 20 -121 17 0 19 8 22 78 l3 77 44 -77 c36
-62 49 -78 68 -78 23 0 23 1 23 120 0 112 -1 120 -20 120 -17 0 -19 -8 -22
-77 l-3 -78 -46 75 c-31 51 -52 76 -67 78 -22 3 -22 1 -22 -117z"/>
<path d="M3317 864 c-21 -59 -41 -113 -44 -120 -3 -10 2 -14 19 -14 17 0 27 8
34 28 10 27 15 29 55 26 40 -2 61 -16 71 -46 2 -6 13 -8 25 -6 21 3 20 7 -25
121 -42 108 -47 117 -71 117 -24 0 -29 -9 -64 -106z m93 -30 c0 -9 -11 -14
-30 -14 -35 0 -36 4 -14 56 l16 38 14 -33 c8 -18 14 -40 14 -47z"/>
<path d="M3530 850 c0 -113 1 -120 20 -120 18 0 20 7 20 70 0 39 4 70 9 70 5
0 27 -31 50 -70 34 -56 47 -70 66 -70 l25 0 0 120 c0 113 -1 120 -20 120 -18
0 -20 -7 -20 -75 0 -41 -3 -75 -7 -75 -5 0 -28 34 -51 75 -35 61 -48 75 -68
75 l-24 0 0 -120z"/>
<path d="M1745 910 l-60 -6 55 -5 55 -4 0 -40 0 -40 -57 -3 c-79 -4 -73 -22 7
-22 l65 0 0 65 c0 36 -1 64 -2 63 -2 -1 -30 -4 -63 -8z"/>
<path d="M3107 892 c-27 -29 -16 -102 15 -102 7 0 7 5 -1 14 -7 8 -11 27 -9
43 2 22 9 29 30 31 19 2 25 8 21 18 -7 20 -37 18 -56 -4z"/>
</g>
</svg>
